<svg xmlns="http://www.w3.org/2000/svg" width="221.34" height="35" viewBox="0 0 221.34 35"><rect class="svg__rect" x="0" y="0" width="65.13" height="35" fill="#000000"/><rect class="svg__rect" x="63.13" y="0" width="158.21" height="35" fill="#005384"/><path class="svg__text" d="M16.51 22L13.46 13.47L15.08 13.47L17.22 20.14L19.39 13.47L21.02 13.47L17.95 22L16.51 22ZM26.53 22L25.06 22L25.06 13.47L26.53 13.47L26.53 22ZM36.92 22L31.34 22L31.34 13.47L36.88 13.47L36.88 14.66L32.83 14.66L32.83 17.02L36.33 17.02L36.33 18.19L32.83 18.19L32.83 20.82L36.92 20.82L36.92 22ZM42.50 22L40.53 13.47L42.00 13.47L43.33 19.88L44.96 13.47L46.20 13.47L47.81 19.89L49.12 13.47L50.59 13.47L48.62 22L47.21 22L45.58 15.77L43.92 22L42.50 22Z" fill="#FFFFFF"/><path class="svg__text" d="M79.70 22L77.32 22L77.32 13.60L83.91 13.60L83.91 15.44L79.70 15.44L79.70 17.28L83.41 17.28L83.41 19.12L79.70 19.12L79.70 22ZM90.88 22L88.50 22L88.50 13.60L90.88 13.60L90.88 22ZM98.39 22L96.06 22L96.06 13.60L98.01 13.60L101.72 18.07L101.72 13.60L104.05 13.60L104.05 22L102.10 22L98.39 17.52L98.39 22ZM110.63 22L108.20 22L111.91 13.60L114.26 13.60L117.97 22L115.50 22L114.84 20.37L111.29 20.37L110.63 22ZM113.07 15.93L111.98 18.61L114.14 18.61L113.07 15.93ZM128.51 22L122.12 22L122.12 13.60L124.50 13.60L124.50 20.11L128.51 20.11L128.51 22ZM139.47 17.80L139.47 17.80Q139.47 16.55 140.08 15.55Q140.68 14.56 141.74 14.00Q142.81 13.43 144.14 13.43L144.14 13.43Q145.47 13.43 146.53 14.00Q147.60 14.56 148.20 15.55Q148.81 16.55 148.81 17.80L148.81 17.80Q148.81 19.05 148.20 20.04Q147.60 21.04 146.53 21.60Q145.47 22.17 144.14 22.17L144.14 22.17Q142.81 22.17 141.74 21.60Q140.68 21.04 140.08 20.04Q139.47 19.05 139.47 17.80ZM141.87 17.80L141.87 17.80Q141.87 18.51 142.17 19.05Q142.47 19.60 142.99 19.90Q143.51 20.20 144.14 20.20L144.14 20.20Q144.78 20.20 145.29 19.90Q145.81 19.60 146.11 19.05Q146.41 18.51 146.41 17.80L146.41 17.80Q146.41 17.09 146.11 16.54Q145.81 16 145.29 15.70Q144.78 15.40 144.14 15.40L144.14 15.40Q143.50 15.40 142.99 15.70Q142.47 16 142.17 16.54Q141.87 17.09 141.87 17.80ZM153.47 18.26L153.47 18.26L153.47 13.60L155.85 13.60L155.85 18.19Q155.85 20.20 157.44 20.20L157.44 20.20Q159.02 20.20 159.02 18.19L159.02 18.19L159.02 13.60L161.36 13.60L161.36 18.26Q161.36 20.13 160.32 21.15Q159.28 22.17 157.42 22.17L157.42 22.17Q155.54 22.17 154.50 21.15Q153.47 20.13 153.47 18.26ZM168.24 15.48L165.66 15.48L165.66 13.60L173.18 13.60L173.18 15.48L170.62 15.48L170.62 22L168.24 22L168.24 15.48ZM179.93 22L177.55 22L177.55 13.60L181.40 13.60Q182.53 13.60 183.38 13.98Q184.22 14.35 184.67 15.06Q185.13 15.76 185.13 16.71L185.13 16.71Q185.13 17.66 184.67 18.35Q184.22 19.05 183.38 19.42Q182.53 19.80 181.40 19.80L181.40 19.80L179.93 19.80L179.93 22ZM179.93 15.47L179.93 17.93L181.25 17.93Q181.98 17.93 182.36 17.61Q182.73 17.29 182.73 16.71L182.73 16.71Q182.73 16.12 182.36 15.80Q181.98 15.47 181.25 15.47L181.25 15.47L179.93 15.47ZM189.81 18.26L189.81 18.26L189.81 13.60L192.19 13.60L192.19 18.19Q192.19 20.20 193.78 20.20L193.78 20.20Q195.37 20.20 195.37 18.19L195.37 18.19L195.37 13.60L197.71 13.60L197.71 18.26Q197.71 20.13 196.67 21.15Q195.63 22.17 193.76 22.17L193.76 22.17Q191.89 22.17 190.85 21.15Q189.81 20.13 189.81 18.26ZM204.59 15.48L202.01 15.48L202.01 13.60L209.53 13.60L209.53 15.48L206.96 15.48L206.96 22L204.59 22L204.59 15.48Z" fill="#FFFFFF" x="76.13"/></svg>