<svg xmlns="http://www.w3.org/2000/svg" width="373.77" height="35" viewBox="0 0 373.77 35"><rect class="svg__rect" x="0" y="0" width="65.13" height="35" fill="#000000"/><rect class="svg__rect" x="63.13" y="0" width="310.64" height="35" fill="#005384"/><path class="svg__text" d="M16.51 22L13.46 13.47L15.08 13.47L17.22 20.14L19.39 13.47L21.02 13.47L17.95 22L16.51 22ZM26.53 22L25.06 22L25.06 13.47L26.53 13.47L26.53 22ZM36.92 22L31.34 22L31.34 13.47L36.88 13.47L36.88 14.66L32.83 14.66L32.83 17.02L36.33 17.02L36.33 18.19L32.83 18.19L32.83 20.82L36.92 20.82L36.92 22ZM42.50 22L40.53 13.47L42.00 13.47L43.33 19.88L44.96 13.47L46.20 13.47L47.81 19.89L49.12 13.47L50.59 13.47L48.62 22L47.21 22L45.58 15.77L43.92 22L42.50 22Z" fill="#FFFFFF"/><path class="svg__text" d="M76.24 20.93L76.24 20.93L77.53 19.40Q78.20 20.27 78.98 20.27L78.98 20.27Q78.98 20.27 78.99 20.27L78.99 20.27Q79.50 20.27 79.77 19.96Q80.04 19.65 80.04 19.05L80.04 19.05L80.04 15.44L77.14 15.44L77.14 13.60L82.40 13.60L82.40 18.91Q82.40 20.54 81.57 21.36Q80.75 22.17 79.16 22.17L79.16 22.17Q78.23 22.17 77.48 21.85Q76.72 21.53 76.24 20.93ZM87.06 17.80L87.06 17.80Q87.06 16.55 87.66 15.55Q88.26 14.56 89.33 14.00Q90.39 13.43 91.72 13.43L91.72 13.43Q93.05 13.43 94.11 14.00Q95.18 14.56 95.78 15.55Q96.39 16.55 96.39 17.80L96.39 17.80Q96.39 19.05 95.78 20.04Q95.18 21.04 94.12 21.60Q93.06 22.17 91.72 22.17L91.72 22.17Q90.39 22.17 89.33 21.60Q88.26 21.04 87.66 20.04Q87.06 19.05 87.06 17.80ZM89.45 17.80L89.45 17.80Q89.45 18.51 89.75 19.05Q90.06 19.60 90.57 19.90Q91.09 20.20 91.72 20.20L91.72 20.20Q92.36 20.20 92.87 19.90Q93.39 19.60 93.69 19.05Q93.99 18.51 93.99 17.80L93.99 17.80Q93.99 17.09 93.69 16.54Q93.39 16 92.87 15.70Q92.36 15.40 91.72 15.40L91.72 15.40Q91.08 15.40 90.57 15.70Q90.06 16 89.75 16.54Q89.45 17.09 89.45 17.80ZM103.50 22L101.12 22L101.12 13.60L103.50 13.60L103.50 22ZM111.00 22L108.67 22L108.67 13.60L110.63 13.60L114.34 18.07L114.34 13.60L116.66 13.60L116.66 22L114.71 22L111.00 17.52L111.00 22ZM131.18 22L128.80 22L128.80 13.60L131.18 13.60L131.18 22ZM138.55 22L136.35 22L136.35 13.60L138.31 13.60L141.26 18.45L144.14 13.60L146.10 13.60L146.12 22L143.94 22L143.92 17.55L141.75 21.17L140.70 21.17L138.55 17.67L138.55 22ZM153.66 22L151.28 22L151.28 13.60L155.12 13.60Q156.26 13.60 157.10 13.98Q157.94 14.35 158.40 15.06Q158.86 15.76 158.86 16.71L158.86 16.71Q158.86 17.66 158.40 18.35Q157.94 19.05 157.10 19.42Q156.26 19.80 155.12 19.80L155.12 19.80L153.66 19.80L153.66 22ZM153.66 15.47L153.66 17.93L154.98 17.93Q155.71 17.93 156.08 17.61Q156.45 17.29 156.45 16.71L156.45 16.71Q156.45 16.12 156.08 15.80Q155.71 15.47 154.98 15.47L154.98 15.47L153.66 15.47ZM170.00 22L163.61 22L163.61 13.60L165.99 13.60L165.99 20.11L170.00 20.11L170.00 22ZM181.16 22L174.41 22L174.41 13.60L181.01 13.60L181.01 15.44L176.77 15.44L176.77 16.85L180.50 16.85L180.50 18.63L176.77 18.63L176.77 20.17L181.16 20.17L181.16 22ZM188.16 22L185.96 22L185.96 13.60L187.92 13.60L190.87 18.45L193.76 13.60L195.71 13.60L195.73 22L193.55 22L193.53 17.55L191.36 21.17L190.31 21.17L188.16 17.67L188.16 22ZM207.64 22L200.89 22L200.89 13.60L207.48 13.60L207.48 15.44L203.25 15.44L203.25 16.85L206.98 16.85L206.98 18.63L203.25 18.63L203.25 20.17L207.64 20.17L207.64 22ZM214.77 22L212.44 22L212.44 13.60L214.40 13.60L218.11 18.07L218.11 13.60L220.43 13.60L220.43 22L218.48 22L214.77 17.52L214.77 22ZM227.39 15.48L224.80 15.48L224.80 13.60L232.33 13.60L232.33 15.48L229.76 15.48L229.76 22L227.39 22L227.39 15.48ZM238.12 22L235.69 22L239.40 13.60L241.74 13.60L245.46 22L242.99 22L242.33 20.37L238.78 20.37L238.12 22ZM240.55 15.93L239.47 18.61L241.63 18.61L240.55 15.93ZM251.41 15.48L248.82 15.48L248.82 13.60L256.35 13.60L256.35 15.48L253.78 15.48L253.78 22L251.41 22L251.41 15.48ZM263.10 22L260.72 22L260.72 13.60L263.10 13.60L263.10 22ZM267.84 17.80L267.84 17.80Q267.84 16.55 268.44 15.55Q269.05 14.56 270.11 14.00Q271.18 13.43 272.51 13.43L272.51 13.43Q273.84 13.43 274.90 14.00Q275.96 14.56 276.57 15.55Q277.18 16.55 277.18 17.80L277.18 17.80Q277.18 19.05 276.57 20.04Q275.96 21.04 274.90 21.60Q273.84 22.17 272.51 22.17L272.51 22.17Q271.18 22.17 270.11 21.60Q269.05 21.04 268.44 20.04Q267.84 19.05 267.84 17.80ZM270.24 17.80L270.24 17.80Q270.24 18.51 270.54 19.05Q270.84 19.60 271.36 19.90Q271.87 20.20 272.51 20.20L272.51 20.20Q273.14 20.20 273.66 19.90Q274.18 19.60 274.47 19.05Q274.77 18.51 274.77 17.80L274.77 17.80Q274.77 17.09 274.47 16.54Q274.18 16 273.66 15.70Q273.14 15.40 272.51 15.40L272.51 15.40Q271.87 15.40 271.35 15.70Q270.84 16 270.54 16.54Q270.24 17.09 270.24 17.80ZM284.24 22L281.90 22L281.90 13.60L283.86 13.60L287.57 18.07L287.57 13.60L289.90 13.60L289.90 22L287.94 22L284.24 17.52L284.24 22ZM304.41 22L302.03 22L302.03 13.60L305.87 13.60Q307.01 13.60 307.85 13.98Q308.69 14.35 309.15 15.06Q309.61 15.76 309.61 16.71L309.61 16.71Q309.61 17.66 309.15 18.35Q308.69 19.05 307.85 19.42Q307.01 19.80 305.87 19.80L305.87 19.80L304.41 19.80L304.41 22ZM304.41 15.47L304.41 17.93L305.73 17.93Q306.46 17.93 306.83 17.61Q307.20 17.29 307.20 16.71L307.20 16.71Q307.20 16.12 306.83 15.80Q306.46 15.47 305.73 15.47L305.73 15.47L304.41 15.47ZM315.78 22L313.35 22L317.06 13.60L319.40 13.60L323.12 22L320.65 22L319.99 20.37L316.44 20.37L315.78 22ZM318.21 15.93L317.13 18.61L319.29 18.61L318.21 15.93ZM329.65 22L327.27 22L327.27 13.60L331.12 13.60Q332.26 13.60 333.10 13.98Q333.94 14.35 334.39 15.06Q334.85 15.76 334.85 16.71L334.85 16.71Q334.85 17.62 334.42 18.30Q333.99 18.98 333.20 19.36L333.20 19.36L335.01 22L332.47 22L330.95 19.77L329.65 19.77L329.65 22ZM329.65 15.47L329.65 17.93L330.97 17.93Q331.70 17.93 332.07 17.61Q332.45 17.29 332.45 16.71L332.45 16.71Q332.45 16.12 332.07 15.79Q331.70 15.47 330.97 15.47L330.97 15.47L329.65 15.47ZM341.43 15.48L338.85 15.48L338.85 13.60L346.37 13.60L346.37 15.48L343.80 15.48L343.80 22L341.43 22L341.43 15.48ZM358.51 15.44L356.94 15.44L356.94 13.60L360.88 13.60L360.88 22L358.51 22L358.51 15.44Z" fill="#FFFFFF" x="76.13"/></svg>