<svg xmlns="http://www.w3.org/2000/svg" width="272.63" height="35" viewBox="0 0 272.63 35"><rect class="svg__rect" x="0" y="0" width="65.13" height="35" fill="#000000"/><rect class="svg__rect" x="63.13" y="0" width="209.5" height="35" fill="#005384"/><path class="svg__text" d="M16.51 22L13.46 13.47L15.08 13.47L17.22 20.14L19.39 13.47L21.02 13.47L17.95 22L16.51 22ZM26.53 22L25.06 22L25.06 13.47L26.53 13.47L26.53 22ZM36.92 22L31.34 22L31.34 13.47L36.88 13.47L36.88 14.66L32.83 14.66L32.83 17.02L36.33 17.02L36.33 18.19L32.83 18.19L32.83 20.82L36.92 20.82L36.92 22ZM42.50 22L40.53 13.47L42.00 13.47L43.33 19.88L44.96 13.47L46.20 13.47L47.81 19.89L49.12 13.47L50.59 13.47L48.62 22L47.21 22L45.58 15.77L43.92 22L42.50 22Z" fill="#FFFFFF"/><path class="svg__text" d="M81.29 22L77.32 22L77.32 13.60L81.29 13.60Q82.67 13.60 83.74 14.12Q84.81 14.63 85.40 15.58Q85.98 16.53 85.98 17.80L85.98 17.80Q85.98 19.07 85.40 20.02Q84.81 20.97 83.74 21.48Q82.67 22 81.29 22L81.29 22ZM79.70 15.50L79.70 20.10L81.20 20.10Q82.27 20.10 82.93 19.49Q83.58 18.88 83.58 17.80L83.58 17.80Q83.58 16.72 82.93 16.11Q82.27 15.50 81.20 15.50L81.20 15.50L79.70 15.50ZM92.13 22L89.70 22L93.41 13.60L95.76 13.60L99.47 22L97.01 22L96.34 20.37L92.79 20.37L92.13 22ZM94.57 15.93L93.48 18.61L95.65 18.61L94.57 15.93ZM105.42 15.48L102.84 15.48L102.84 13.60L110.36 13.60L110.36 15.48L107.79 15.48L107.79 22L105.42 22L105.42 15.48ZM116.15 22L113.72 22L117.43 13.60L119.77 13.60L123.49 22L121.02 22L120.36 20.37L116.81 20.37L116.15 22ZM118.59 15.93L117.50 18.61L119.66 18.61L118.59 15.93ZM141.36 22L134.62 22L134.62 13.60L141.21 13.60L141.21 15.44L136.97 15.44L136.97 16.85L140.70 16.85L140.70 18.63L136.97 18.63L136.97 20.17L141.36 20.17L141.36 22ZM148.02 22L145.30 22L148.36 17.75L145.43 13.60L148.11 13.60L149.79 16.02L151.44 13.60L154.02 13.60L151.09 17.66L154.21 22L151.47 22L149.73 19.40L148.02 22ZM160.87 22L158.49 22L158.49 13.60L162.34 13.60Q163.47 13.60 164.31 13.98Q165.16 14.35 165.61 15.06Q166.07 15.76 166.07 16.71L166.07 16.71Q166.07 17.66 165.61 18.35Q165.16 19.05 164.31 19.42Q163.47 19.80 162.34 19.80L162.34 19.80L160.87 19.80L160.87 22ZM160.87 15.47L160.87 17.93L162.19 17.93Q162.92 17.93 163.30 17.61Q163.67 17.29 163.67 16.71L163.67 16.71Q163.67 16.12 163.30 15.80Q162.92 15.47 162.19 15.47L162.19 15.47L160.87 15.47ZM177.21 22L170.82 22L170.82 13.60L173.20 13.60L173.20 20.11L177.21 20.11L177.21 22ZM181.20 17.80L181.20 17.80Q181.20 16.55 181.80 15.55Q182.41 14.56 183.47 14.00Q184.53 13.43 185.86 13.43L185.86 13.43Q187.19 13.43 188.26 14.00Q189.32 14.56 189.93 15.55Q190.53 16.55 190.53 17.80L190.53 17.80Q190.53 19.05 189.93 20.04Q189.32 21.04 188.26 21.60Q187.20 22.17 185.86 22.17L185.86 22.17Q184.53 22.17 183.47 21.60Q182.41 21.04 181.80 20.04Q181.20 19.05 181.20 17.80ZM183.60 17.80L183.60 17.80Q183.60 18.51 183.90 19.05Q184.20 19.60 184.71 19.90Q185.23 20.20 185.86 20.20L185.86 20.20Q186.50 20.20 187.02 19.90Q187.53 19.60 187.83 19.05Q188.13 18.51 188.13 17.80L188.13 17.80Q188.13 17.09 187.83 16.54Q187.53 16 187.02 15.70Q186.50 15.40 185.86 15.40L185.86 15.40Q185.22 15.40 184.71 15.70Q184.20 16 183.90 16.54Q183.60 17.09 183.60 17.80ZM197.64 22L195.26 22L195.26 13.60L199.10 13.60Q200.25 13.60 201.09 13.98Q201.92 14.35 202.38 15.06Q202.84 15.76 202.84 16.71L202.84 16.71Q202.84 17.62 202.41 18.30Q201.98 18.98 201.19 19.36L201.19 19.36L203.00 22L200.46 22L198.94 19.77L197.64 19.77L197.64 22ZM197.64 15.47L197.64 17.93L198.96 17.93Q199.69 17.93 200.06 17.61Q200.44 17.29 200.44 16.71L200.44 16.71Q200.44 16.12 200.06 15.79Q199.69 15.47 198.96 15.47L198.96 15.47L197.64 15.47ZM209.04 22L206.62 22L210.33 13.60L212.67 13.60L216.38 22L213.92 22L213.26 20.37L209.70 20.37L209.04 22ZM211.48 15.93L210.40 18.61L212.56 18.61L211.48 15.93ZM222.33 15.48L219.75 15.48L219.75 13.60L227.27 13.60L227.27 15.48L224.70 15.48L224.70 22L222.33 22L222.33 15.48ZM234.02 22L231.64 22L231.64 13.60L234.02 13.60L234.02 22ZM238.77 17.80L238.77 17.80Q238.77 16.55 239.37 15.55Q239.97 14.56 241.04 14.00Q242.10 13.43 243.43 13.43L243.43 13.43Q244.76 13.43 245.82 14.00Q246.89 14.56 247.49 15.55Q248.10 16.55 248.10 17.80L248.10 17.80Q248.10 19.05 247.49 20.04Q246.89 21.04 245.83 21.60Q244.77 22.17 243.43 22.17L243.43 22.17Q242.10 22.17 241.04 21.60Q239.97 21.04 239.37 20.04Q238.77 19.05 238.77 17.80ZM241.16 17.80L241.16 17.80Q241.16 18.51 241.47 19.05Q241.77 19.60 242.28 19.90Q242.80 20.20 243.43 20.20L243.43 20.20Q244.07 20.20 244.59 19.90Q245.10 19.60 245.40 19.05Q245.70 18.51 245.70 17.80L245.70 17.80Q245.70 17.09 245.40 16.54Q245.10 16 244.59 15.70Q244.07 15.40 243.43 15.40L243.43 15.40Q242.79 15.40 242.28 15.70Q241.77 16 241.47 16.54Q241.16 17.09 241.16 17.80ZM255.16 22L252.83 22L252.83 13.60L254.79 13.60L258.50 18.07L258.50 13.60L260.82 13.60L260.82 22L258.87 22L255.16 17.52L255.16 22Z" fill="#FFFFFF" x="76.13"/></svg>