<svg xmlns="http://www.w3.org/2000/svg" width="261.41" height="35" viewBox="0 0 261.41 35"><rect class="svg__rect" x="0" y="0" width="65.13" height="35" fill="#000000"/><rect class="svg__rect" x="63.13" y="0" width="198.28" height="35" fill="#005384"/><path class="svg__text" d="M16.51 22L13.46 13.47L15.08 13.47L17.22 20.14L19.39 13.47L21.02 13.47L17.95 22L16.51 22ZM26.53 22L25.06 22L25.06 13.47L26.53 13.47L26.53 22ZM36.92 22L31.34 22L31.34 13.47L36.88 13.47L36.88 14.66L32.83 14.66L32.83 17.02L36.33 17.02L36.33 18.19L32.83 18.19L32.83 20.82L36.92 20.82L36.92 22ZM42.50 22L40.53 13.47L42.00 13.47L43.33 19.88L44.96 13.47L46.20 13.47L47.81 19.89L49.12 13.47L50.59 13.47L48.62 22L47.21 22L45.58 15.77L43.92 22L42.50 22Z" fill="#FFFFFF"/><path class="svg__text" d="M79.70 22L77.32 22L77.32 13.60L81.16 13.60Q82.30 13.60 83.14 13.98Q83.98 14.35 84.44 15.06Q84.89 15.76 84.89 16.71L84.89 16.71Q84.89 17.66 84.44 18.35Q83.98 19.05 83.14 19.42Q82.30 19.80 81.16 19.80L81.16 19.80L79.70 19.80L79.70 22ZM79.70 15.47L79.70 17.93L81.02 17.93Q81.75 17.93 82.12 17.61Q82.49 17.29 82.49 16.71L82.49 16.71Q82.49 16.12 82.12 15.80Q81.75 15.47 81.02 15.47L81.02 15.47L79.70 15.47ZM92.02 22L89.65 22L89.65 13.60L93.49 13.60Q94.63 13.60 95.47 13.98Q96.31 14.35 96.77 15.06Q97.22 15.76 97.22 16.71L97.22 16.71Q97.22 17.62 96.79 18.30Q96.37 18.98 95.58 19.36L95.58 19.36L97.39 22L94.84 22L93.32 19.77L92.02 19.77L92.02 22ZM92.02 15.47L92.02 17.93L93.34 17.93Q94.08 17.93 94.45 17.61Q94.82 17.29 94.82 16.71L94.82 16.71Q94.82 16.12 94.45 15.79Q94.08 15.47 93.34 15.47L93.34 15.47L92.02 15.47ZM101.58 17.80L101.58 17.80Q101.58 16.55 102.19 15.55Q102.79 14.56 103.85 14.00Q104.92 13.43 106.25 13.43L106.25 13.43Q107.58 13.43 108.64 14.00Q109.70 14.56 110.31 15.55Q110.92 16.55 110.92 17.80L110.92 17.80Q110.92 19.05 110.31 20.04Q109.70 21.04 108.64 21.60Q107.58 22.17 106.25 22.17L106.25 22.17Q104.92 22.17 103.85 21.60Q102.79 21.04 102.19 20.04Q101.58 19.05 101.58 17.80ZM103.98 17.80L103.98 17.80Q103.98 18.51 104.28 19.05Q104.58 19.60 105.10 19.90Q105.61 20.20 106.25 20.20L106.25 20.20Q106.88 20.20 107.40 19.90Q107.92 19.60 108.21 19.05Q108.51 18.51 108.51 17.80L108.51 17.80Q108.51 17.09 108.21 16.54Q107.92 16 107.40 15.70Q106.88 15.40 106.25 15.40L106.25 15.40Q105.61 15.40 105.09 15.70Q104.58 16 104.28 16.54Q103.98 17.09 103.98 17.80ZM120.19 22L115.64 22L115.64 13.60L119.94 13.60Q121.55 13.60 122.39 14.19Q123.23 14.79 123.23 15.79L123.23 15.79Q123.23 16.39 122.94 16.87Q122.64 17.34 122.10 17.62L122.10 17.62Q122.82 17.87 123.23 18.41Q123.64 18.94 123.64 19.70L123.64 19.70Q123.64 20.80 122.75 21.40Q121.86 22 120.19 22L120.19 22ZM118.00 18.58L118.00 20.28L119.99 20.28Q121.24 20.28 121.24 19.43L121.24 19.43Q121.24 18.58 119.99 18.58L119.99 18.58L118.00 18.58ZM118.00 15.31L118.00 16.94L119.63 16.94Q120.83 16.94 120.83 16.12L120.83 16.12Q120.83 15.31 119.63 15.31L119.63 15.31L118.00 15.31ZM134.74 22L128.35 22L128.35 13.60L130.73 13.60L130.73 20.11L134.74 20.11L134.74 22ZM145.90 22L139.16 22L139.16 13.60L145.75 13.60L145.75 15.44L141.51 15.44L141.51 16.85L145.25 16.85L145.25 18.63L141.51 18.63L141.51 20.17L145.90 20.17L145.90 22ZM152.90 22L150.71 22L150.71 13.60L152.66 13.60L155.62 18.45L158.50 13.60L160.45 13.60L160.47 22L158.29 22L158.27 17.55L156.11 21.17L155.05 21.17L152.90 17.67L152.90 22ZM172.02 21.24L172.02 21.24L172.80 19.49Q173.36 19.86 174.11 20.09Q174.85 20.32 175.57 20.32L175.57 20.32Q176.94 20.32 176.94 19.64L176.94 19.64Q176.94 19.28 176.56 19.11Q176.17 18.93 175.30 18.74L175.30 18.74Q174.35 18.53 173.71 18.30Q173.08 18.06 172.62 17.55Q172.17 17.03 172.17 16.16L172.17 16.16Q172.17 15.39 172.59 14.77Q173.01 14.15 173.84 13.79Q174.68 13.43 175.88 13.43L175.88 13.43Q176.71 13.43 177.52 13.62Q178.32 13.80 178.94 14.17L178.94 14.17L178.20 15.93Q177.00 15.28 175.87 15.28L175.87 15.28Q175.16 15.28 174.84 15.49Q174.52 15.70 174.52 16.04L174.52 16.04Q174.52 16.37 174.90 16.54Q175.29 16.71 176.14 16.89L176.14 16.89Q177.10 17.10 177.73 17.33Q178.36 17.56 178.82 18.07Q179.28 18.58 179.28 19.46L179.28 19.46Q179.28 20.21 178.86 20.83Q178.44 21.44 177.60 21.80Q176.76 22.17 175.56 22.17L175.56 22.17Q174.54 22.17 173.58 21.92Q172.62 21.67 172.02 21.24ZM183.43 17.80L183.43 17.80Q183.43 16.55 184.03 15.55Q184.64 14.56 185.70 14.00Q186.77 13.43 188.10 13.43L188.10 13.43Q189.43 13.43 190.49 14.00Q191.55 14.56 192.16 15.55Q192.77 16.55 192.77 17.80L192.77 17.80Q192.77 19.05 192.16 20.04Q191.55 21.04 190.49 21.60Q189.43 22.17 188.10 22.17L188.10 22.17Q186.77 22.17 185.70 21.60Q184.64 21.04 184.03 20.04Q183.43 19.05 183.43 17.80ZM185.83 17.80L185.83 17.80Q185.83 18.51 186.13 19.05Q186.43 19.60 186.95 19.90Q187.46 20.20 188.10 20.20L188.10 20.20Q188.73 20.20 189.25 19.90Q189.77 19.60 190.06 19.05Q190.36 18.51 190.36 17.80L190.36 17.80Q190.36 17.09 190.06 16.54Q189.77 16 189.25 15.70Q188.73 15.40 188.10 15.40L188.10 15.40Q187.46 15.40 186.94 15.70Q186.43 16 186.13 16.54Q185.83 17.09 185.83 17.80ZM203.88 22L197.49 22L197.49 13.60L199.87 13.60L199.87 20.11L203.88 20.11L203.88 22ZM210.88 22L207.29 13.60L209.86 13.60L212.14 19.07L214.47 13.60L216.82 13.60L213.22 22L210.88 22ZM223.35 22L220.97 22L220.97 13.60L223.35 13.60L223.35 22ZM230.86 22L228.52 22L228.52 13.60L230.48 13.60L234.19 18.07L234.19 13.60L236.52 13.60L236.52 22L234.57 22L230.86 17.52L230.86 22ZM241.25 17.80L241.25 17.80Q241.25 16.54 241.85 15.54Q242.45 14.55 243.52 13.99Q244.59 13.43 245.93 13.43L245.93 13.43Q247.10 13.43 248.04 13.83Q248.98 14.22 249.60 14.97L249.60 14.97L248.09 16.33Q247.25 15.40 246.07 15.40L246.07 15.40Q246.06 15.40 246.05 15.40L246.05 15.40Q244.97 15.40 244.31 16.06Q243.65 16.71 243.65 17.80L243.65 17.80Q243.65 18.50 243.95 19.04Q244.25 19.59 244.79 19.89Q245.33 20.20 246.03 20.20L246.03 20.20Q246.71 20.20 247.31 19.93L247.31 19.93L247.31 17.62L249.41 17.62L249.41 21.10Q248.69 21.61 247.75 21.89Q246.82 22.17 245.88 22.17L245.88 22.17Q244.56 22.17 243.50 21.61Q242.45 21.05 241.85 20.05Q241.25 19.06 241.25 17.80Z" fill="#FFFFFF" x="76.13"/></svg>