<svg xmlns="http://www.w3.org/2000/svg" width="281.23" height="35" viewBox="0 0 281.23 35"><rect class="svg__rect" x="0" y="0" width="65.13" height="35" fill="#000000"/><rect class="svg__rect" x="63.13" y="0" width="218.10000000000002" height="35" fill="#005384"/><path class="svg__text" d="M16.51 22L13.46 13.47L15.08 13.47L17.22 20.14L19.39 13.47L21.02 13.47L17.95 22L16.51 22ZM26.53 22L25.06 22L25.06 13.47L26.53 13.47L26.53 22ZM36.92 22L31.34 22L31.34 13.47L36.88 13.47L36.88 14.66L32.83 14.66L32.83 17.02L36.33 17.02L36.33 18.19L32.83 18.19L32.83 20.82L36.92 20.82L36.92 22ZM42.50 22L40.53 13.47L42.00 13.47L43.33 19.88L44.96 13.47L46.20 13.47L47.81 19.89L49.12 13.47L50.59 13.47L48.62 22L47.21 22L45.58 15.77L43.92 22L42.50 22Z" fill="#FFFFFF"/><path class="svg__text" d="M79.70 22L77.32 22L77.32 13.60L81.16 13.60Q82.30 13.60 83.14 13.98Q83.98 14.35 84.44 15.06Q84.89 15.76 84.89 16.71L84.89 16.71Q84.89 17.66 84.44 18.35Q83.98 19.05 83.14 19.42Q82.30 19.80 81.16 19.80L81.16 19.80L79.70 19.80L79.70 22ZM79.70 15.47L79.70 17.93L81.02 17.93Q81.75 17.93 82.12 17.61Q82.49 17.29 82.49 16.71L82.49 16.71Q82.49 16.12 82.12 15.80Q81.75 15.47 81.02 15.47L81.02 15.47L79.70 15.47ZM92.02 22L89.65 22L89.65 13.60L93.49 13.60Q94.63 13.60 95.47 13.98Q96.31 14.35 96.77 15.06Q97.22 15.76 97.22 16.71L97.22 16.71Q97.22 17.62 96.79 18.30Q96.37 18.98 95.58 19.36L95.58 19.36L97.39 22L94.84 22L93.32 19.77L92.02 19.77L92.02 22ZM92.02 15.47L92.02 17.93L93.34 17.93Q94.08 17.93 94.45 17.61Q94.82 17.29 94.82 16.71L94.82 16.71Q94.82 16.12 94.45 15.79Q94.08 15.47 93.34 15.47L93.34 15.47L92.02 15.47ZM101.58 17.80L101.58 17.80Q101.58 16.55 102.19 15.55Q102.79 14.56 103.85 14.00Q104.92 13.43 106.25 13.43L106.25 13.43Q107.58 13.43 108.64 14.00Q109.70 14.56 110.31 15.55Q110.92 16.55 110.92 17.80L110.92 17.80Q110.92 19.05 110.31 20.04Q109.70 21.04 108.64 21.60Q107.58 22.17 106.25 22.17L106.25 22.17Q104.92 22.17 103.85 21.60Q102.79 21.04 102.19 20.04Q101.58 19.05 101.58 17.80ZM103.98 17.80L103.98 17.80Q103.98 18.51 104.28 19.05Q104.58 19.60 105.10 19.90Q105.61 20.20 106.25 20.20L106.25 20.20Q106.88 20.20 107.40 19.90Q107.92 19.60 108.21 19.05Q108.51 18.51 108.51 17.80L108.51 17.80Q108.51 17.09 108.21 16.54Q107.92 16 107.40 15.70Q106.88 15.40 106.25 15.40L106.25 15.40Q105.61 15.40 105.09 15.70Q104.58 16 104.28 16.54Q103.98 17.09 103.98 17.80ZM120.19 22L115.64 22L115.64 13.60L119.94 13.60Q121.55 13.60 122.39 14.19Q123.23 14.79 123.23 15.79L123.23 15.79Q123.23 16.39 122.94 16.87Q122.64 17.34 122.10 17.62L122.10 17.62Q122.82 17.87 123.23 18.41Q123.64 18.94 123.64 19.70L123.64 19.70Q123.64 20.80 122.75 21.40Q121.86 22 120.19 22L120.19 22ZM118.00 18.58L118.00 20.28L119.99 20.28Q121.24 20.28 121.24 19.43L121.24 19.43Q121.24 18.58 119.99 18.58L119.99 18.58L118.00 18.58ZM118.00 15.31L118.00 16.94L119.63 16.94Q120.83 16.94 120.83 16.12L120.83 16.12Q120.83 15.31 119.63 15.31L119.63 15.31L118.00 15.31ZM134.74 22L128.35 22L128.35 13.60L130.73 13.60L130.73 20.11L134.74 20.11L134.74 22ZM145.90 22L139.16 22L139.16 13.60L145.75 13.60L145.75 15.44L141.51 15.44L141.51 16.85L145.25 16.85L145.25 18.63L141.51 18.63L141.51 20.17L145.90 20.17L145.90 22ZM152.90 22L150.71 22L150.71 13.60L152.66 13.60L155.62 18.45L158.50 13.60L160.45 13.60L160.47 22L158.29 22L158.27 17.55L156.11 21.17L155.05 21.17L152.90 17.67L152.90 22ZM174.03 22L171.60 22L175.31 13.60L177.65 13.60L181.37 22L178.90 22L178.24 20.37L174.69 20.37L174.03 22ZM176.46 15.93L175.38 18.61L177.54 18.61L176.46 15.93ZM187.90 22L185.52 22L185.52 13.60L189.37 13.60Q190.50 13.60 191.34 13.98Q192.19 14.35 192.64 15.06Q193.10 15.76 193.10 16.71L193.10 16.71Q193.10 17.66 192.64 18.35Q192.19 19.05 191.34 19.42Q190.50 19.80 189.37 19.80L189.37 19.80L187.90 19.80L187.90 22ZM187.90 15.47L187.90 17.93L189.22 17.93Q189.95 17.93 190.32 17.61Q190.70 17.29 190.70 16.71L190.70 16.71Q190.70 16.12 190.32 15.80Q189.95 15.47 189.22 15.47L189.22 15.47L187.90 15.47ZM200.23 22L197.85 22L197.85 13.60L201.69 13.60Q202.83 13.60 203.67 13.98Q204.51 14.35 204.97 15.06Q205.43 15.76 205.43 16.71L205.43 16.71Q205.43 17.66 204.97 18.35Q204.51 19.05 203.67 19.42Q202.83 19.80 201.69 19.80L201.69 19.80L200.23 19.80L200.23 22ZM200.23 15.47L200.23 17.93L201.55 17.93Q202.28 17.93 202.65 17.61Q203.02 17.29 203.02 16.71L203.02 16.71Q203.02 16.12 202.65 15.80Q202.28 15.47 201.55 15.47L201.55 15.47L200.23 15.47ZM212.56 22L210.18 22L210.18 13.60L214.02 13.60Q215.17 13.60 216.00 13.98Q216.84 14.35 217.30 15.06Q217.76 15.76 217.76 16.71L217.76 16.71Q217.76 17.62 217.33 18.30Q216.90 18.98 216.11 19.36L216.11 19.36L217.92 22L215.38 22L213.85 19.77L212.56 19.77L212.56 22ZM212.56 15.47L212.56 17.93L213.88 17.93Q214.61 17.93 214.98 17.61Q215.35 17.29 215.35 16.71L215.35 16.71Q215.35 16.12 214.98 15.79Q214.61 15.47 213.88 15.47L213.88 15.47L212.56 15.47ZM222.11 17.80L222.11 17.80Q222.11 16.55 222.72 15.55Q223.32 14.56 224.39 14.00Q225.45 13.43 226.78 13.43L226.78 13.43Q228.11 13.43 229.17 14.00Q230.24 14.56 230.84 15.55Q231.45 16.55 231.45 17.80L231.45 17.80Q231.45 19.05 230.84 20.04Q230.24 21.04 229.18 21.60Q228.11 22.17 226.78 22.17L226.78 22.17Q225.45 22.17 224.39 21.60Q223.32 21.04 222.72 20.04Q222.11 19.05 222.11 17.80ZM224.51 17.80L224.51 17.80Q224.51 18.51 224.81 19.05Q225.11 19.60 225.63 19.90Q226.15 20.20 226.78 20.20L226.78 20.20Q227.42 20.20 227.93 19.90Q228.45 19.60 228.75 19.05Q229.05 18.51 229.05 17.80L229.05 17.80Q229.05 17.09 228.75 16.54Q228.45 16 227.93 15.70Q227.42 15.40 226.78 15.40L226.78 15.40Q226.14 15.40 225.63 15.70Q225.11 16 224.81 16.54Q224.51 17.09 224.51 17.80ZM237.60 22L235.17 22L238.88 13.60L241.22 13.60L244.94 22L242.47 22L241.81 20.37L238.26 20.37L237.60 22ZM240.03 15.93L238.95 18.61L241.11 18.61L240.03 15.93ZM248.66 17.80L248.66 17.80Q248.66 16.54 249.26 15.54Q249.86 14.55 250.91 13.99Q251.96 13.43 253.28 13.43L253.28 13.43Q254.44 13.43 255.36 13.84Q256.28 14.25 256.90 15.02L256.90 15.02L255.38 16.39Q254.57 15.40 253.40 15.40L253.40 15.40Q252.72 15.40 252.19 15.70Q251.65 16 251.36 16.54Q251.06 17.09 251.06 17.80L251.06 17.80Q251.06 18.51 251.36 19.05Q251.65 19.60 252.19 19.90Q252.72 20.20 253.40 20.20L253.40 20.20Q254.57 20.20 255.38 19.22L255.38 19.22L256.90 20.58Q256.29 21.35 255.36 21.76Q254.44 22.17 253.28 22.17L253.28 22.17Q251.96 22.17 250.91 21.61Q249.86 21.05 249.26 20.05Q248.66 19.06 248.66 17.80ZM263.81 22L261.43 22L261.43 13.60L263.81 13.60L263.81 16.76L267.05 16.76L267.05 13.60L269.42 13.60L269.42 22L267.05 22L267.05 18.72L263.81 18.72L263.81 22Z" fill="#FFFFFF" x="76.13"/></svg>